<svg width="1270" height="1270" viewBox="0 0 1270 1270" fill="none" xmlns="http://www.w3.org/2000/svg">
<g clip-path="url(#clip0)">
<rect width="1270" height="1270" fill="white"/>
<rect width="88" height="562" transform="matrix(-4.37114e-08 -1 -1 4.37114e-08 898.413 346.503)" fill="#CEAD39"/>
<rect width="88" height="561" transform="matrix(-4.37114e-08 -1 -1 4.37114e-08 770.413 861.503)" fill="#CEAD39"/>
<rect width="88" height="619" transform="matrix(-4.37114e-08 -1 -1 4.37114e-08 898.413 1013.5)" fill="#CEAD39"/>
<rect width="88" height="549" transform="matrix(-4.37114e-08 -1 -1 4.37114e-08 1017.41 498.503)" fill="#CEAD39"/>
<path d="M367.395 1061.5C131.806 782.068 138.216 585.718 363.957 309.619C367.987 304.69 375.626 304.683 379.562 309.687L885.457 952.712C889.144 957.399 896.228 957.703 900.438 953.48C1177.17 675.895 1106.69 485.785 833.967 206.503" stroke="#0000B9" stroke-width="150"/>
<path d="M1095.75 425.598C1085.45 404.205 956.835 146.777 780.413 258L868.413 -53L1095.75 425.598C1096.19 426.517 1096.41 427 1096.41 427L1095.75 425.598Z" fill="white"/>
<path d="M780.413 258C964.413 142 1096.41 427 1096.41 427L868.413 -53L780.413 258Z" stroke="white"/>
<path d="M133.063 806.338C140.666 829.601 234.083 1101.26 423.413 1014.5L294.992 1310.73L133.063 806.338C132.725 805.305 132.557 804.762 132.557 804.762L133.063 806.338Z" fill="white"/>
<path d="M423.413 1014.5C225.674 1105.12 132.557 804.762 132.557 804.762L294.992 1310.73L423.413 1014.5Z" stroke="white"/>
</g>
<defs>
<clipPath id="clip0">
<rect width="1270" height="1270" fill="white"/>
</clipPath>
</defs>
</svg>
