<svg width="5171" height="867" viewBox="0 0 5171 867" fill="none" xmlns="http://www.w3.org/2000/svg">
<g clip-path="url(#clip0)">
<rect width="5171" height="867" fill="white"/>
<path d="M2048 819V110H1910V579L1615 110H1443V819H1581V316L1903 819H2048ZM2474.6 835C2626.6 835 2747.6 742 2747.6 568V110H2609.6V558C2609.6 651 2558.6 700 2474.6 700C2392.6 700 2340.6 651 2340.6 558V110H2202.6V568C2202.6 742 2323.6 835 2474.6 835ZM3223.96 834C3422.96 834 3524.96 702 3551.96 593L3422.96 554C3403.96 620 3344.96 699 3223.96 699C3109.96 699 3003.96 616 3003.96 465C3003.96 304 3115.96 228 3221.96 228C3344.96 228 3399.96 303 3416.96 371L3546.96 330C3518.96 215 3417.96 95 3221.96 95C3031.96 95 2860.96 239 2860.96 465C2860.96 691 3025.96 834 3223.96 834ZM4120.63 819V687H3804.63V110H3666.63V819H4120.63ZM4366.2 819V110H4226.2V819H4366.2ZM4665.96 691V238H4776.96C4892.96 238 4988.96 311 4988.96 465C4988.96 619 4891.96 691 4775.96 691H4665.96ZM4780.96 819C4982.96 819 5131.96 689 5131.96 465C5131.96 241 4983.96 110 4781.96 110H4527.96V819H4780.96Z" fill="#0000B9"/>
<rect width="88" height="562" transform="matrix(-4.37114e-08 -1 -1 4.37114e-08 789 124.503)" fill="#CEAD39"/>
<rect width="88" height="561" transform="matrix(-4.37114e-08 -1 -1 4.37114e-08 661 653.503)" fill="#CEAD39"/>
<rect width="88" height="619" transform="matrix(-4.37114e-08 -1 -1 4.37114e-08 789 818.503)" fill="#CEAD39"/>
<rect width="88" height="549" transform="matrix(-4.37114e-08 -1 -1 4.37114e-08 908 290.503)" fill="#CEAD39"/>
<path d="M257.982 853.503C22.5072 574.204 28.2738 353.542 253.679 77.0717C257.81 72.0047 265.693 72.1707 269.518 77.4722L776.135 779.548C779.722 784.519 787.028 784.996 791.349 780.647C1067.7 502.55 997.17 277.676 724.554 -1.49701" stroke="#0000B9" stroke-width="110"/>
<path d="M1128 499.503C989.114 280.103 859.5 -81.1141 684 35.0028L643.587 -131.121L835.102 -284.085L1128 499.503Z" fill="white"/>
<path d="M-134 338.503C37.7764 533.23 144.782 960.731 299.754 818.367L365.882 976.03L200.913 1157.31L-134 338.503Z" fill="white"/>
</g>
<defs>
<clipPath id="clip0">
<rect width="5171" height="867" fill="white"/>
</clipPath>
</defs>
</svg>
