<svg width="1270" height="1041" viewBox="0 0 1270 1041" fill="none" xmlns="http://www.w3.org/2000/svg">
<rect width="1270" height="1041" fill="#E5E5E5"/>
<g clip-path="url(#clip0)">
<rect width="1270" height="1041" fill="white"/>
<rect width="88" height="562" transform="matrix(-4.37114e-08 -1 -1 4.37114e-08 894 211.503)" fill="#CEAD39"/>
<rect width="88" height="561" transform="matrix(-4.37114e-08 -1 -1 4.37114e-08 766 740.503)" fill="#CEAD39"/>
<rect width="88" height="619" transform="matrix(-4.37114e-08 -1 -1 4.37114e-08 894 905.503)" fill="#CEAD39"/>
<rect width="88" height="549" transform="matrix(-4.37114e-08 -1 -1 4.37114e-08 1013 377.503)" fill="#CEAD39"/>
<path d="M362.982 940.503C127.507 661.204 133.274 440.542 358.679 164.072C362.81 159.005 370.693 159.171 374.518 164.472L881.135 866.548C884.722 871.519 892.028 871.996 896.349 867.647C1172.7 589.55 1102.17 364.676 829.554 85.503" stroke="#0000B9" stroke-width="110"/>
<path d="M1233 586.503C1094.11 367.103 964.5 5.88593 789 122.003L748.587 -44.1214L940.102 -197.085L1233 586.503Z" fill="white"/>
<path d="M-29 425.503C142.776 620.23 249.782 1047.73 404.754 905.367L470.882 1063.03L305.913 1244.31L-29 425.503Z" fill="white"/>
</g>
<defs>
<clipPath id="clip0">
<rect width="1270" height="1041" fill="white"/>
</clipPath>
</defs>
</svg>
